<svg width="210mm" height="148mm" version="1.1" viewBox="0 0 210 148" xmlns="http://www.w3.org/2000/svg">
 <g stroke-width="2.7099" aria-label="phil">
  <path d="m148.96 85.764q0.63516-1.482 2.7523-1.482 3.1758 0 5.0812-1.0586t4.0227-3.5992q1.9055-2.5406 4.6578-6.775-1.2703-4.8695-1.0586-10.586-0.42344-5.293-0.21172-11.856 0.21172-6.775 1.482-13.127 0.21172-1.2703 0.42344-2.3289 0.42344-1.2703 0.63515-2.5406 0.21172-1.2703 0.42344-2.3289 0.42344-1.0586 0.84688-2.3289 2.7523-7.1984 7.1984-10.163 2.1172-1.6938 4.2344-1.6938 2.3289 0 4.0227 1.482 2.7523 2.7523 2.7523 10.586-0.21172 4.0227-1.2703 8.4688-1.0586 4.4461-2.5406 8.8922-4.0226 9.7391-7.1984 16.514-1.6938 3.1758-3.1758 5.9281-1.2703 2.7523-2.5406 5.0812 0.84687 4.0227 1.9055 6.1398 2.3289 5.7164 7.4102 5.293 2.1172-0.42344 1.6938 1.6938-0.42343 2.1172-2.3289 2.1172-7.1984 0.21172-10.374-6.9867-0.63516-0.63516-0.84688-1.482t-0.42343-1.6938q-1.9055 2.5406-2.7524 3.5992-5.5047 6.775-12.703 6.5633-2.5406 0-2.1172-2.3289zm19.478-19.055q0.84688-1.2703 1.482-2.7523 0.63515-1.482 1.6938-3.1758 3.3875-6.775 6.9867-16.091 2.9641-8.6805 3.8109-16.302 0-5.9281-1.9055-7.8336-0.84687-0.63516-1.482-0.63516-1.0586 0-2.1172 0.63516-3.3875 2.5406-4.8695 7.8336-1.0586 2.5406-1.2703 4.2344-0.63516 1.482-1.2703 4.6578-1.2703 6.3516-1.482 12.703-0.21172 6.3516 0.21172 11.433 0.21171 1.9055 0.21171 5.293zm-16.514 17.573q1.9055 0 1.482 1.9055-0.42344 1.9055-2.3289 1.9055-6.9867 0.21172-10.374-2.1172-3.3875-2.3289-4.0227-6.1398-2.5406 3.8109-6.775 6.1398-4.0227 2.3289-11.009 2.1172-1.9055 0-1.482-1.9055 0.42344-1.9055 2.5406-1.9055 8.4688 0.42344 11.856-4.2344 3.3875-4.8695 5.0812-11.221 0.42344-1.2703 0.63515-2.5406 0.21172-1.482 0.42344-2.7523 0.42344-1.2703 0.63516-2.3289 0.21172-1.0586 0.42344-2.3289 0-0.21172 0-0.21172 0-0.21172 0-0.21172 0.21171 0 0.21171 0 0-0.21172 0-0.21172 0.21172-0.21172 0.42344-0.42344 0.21172-0.21172 0.21172-0.21172 0-0.21172 0.21172-0.21172 0.21172-0.21172 0.42344-0.21172 0 0 0.21172 0 0 0 0.21171 0 0.21172-0.21172 0.21172-0.21172h0.21172q0.21172 0 0.21172 0t0 0.21172q0 0 0.21172 0h0.21172t0 0.21172q0.21172 0 0.42344 0 0 0.21172 0 0.63516 0.21171 0.21172 0.42343 0.21172 0 0.21172 0 0.21172t0 0.21172q0.21172 0 0.21172 0.21172-0.21172 1.2703-0.42344 2.3289-0.21171 1.0586-0.63515 2.3289-0.21172 1.2703-0.42344 2.7523-0.21172 1.2703-0.63516 2.5406-1.2703 6.3516 0.21172 11.221 1.6938 4.6578 10.798 4.2344zm-8.6805-37.051q2.5406 0 2.1172 2.3289-0.63516 2.5406-3.1758 2.5406-2.3289 0-1.6938-2.5406 0.42343-2.3289 2.7523-2.3289zm-70.291 40.862q-1.9055 0-1.482-1.9055 0.42344-1.9055 2.5406-1.9055 2.5406 0 3.8109-0.63516 1.0586-0.21172 2.5406-1.6938 2.9641-3.5992 7.1984-9.5273 0-0.21172 0.21172-0.42344 0.42344-0.42344 0.63516-0.84688 0.21172-2.9641 0.42344-5.9281 0.42344-3.1758 1.0586-6.3516 0.42344-6.775 1.2703-13.55 0.84688-6.9867 2.3289-13.973 1.6938-8.4688 6.775-12.703 1.482-1.6938 4.0227-2.1172 1.6938-0.42344 4.2344 0.21172 2.3289 1.6938 3.1758 6.3516 0.21171 4.0227-2.1172 11.645-2.3289 7.6219-6.1398 16.091-0.63515 1.6938-1.482 3.3875-0.63515 1.482-1.482 3.1758 0.21172-0.21172-0.63516 1.0586 4.2344-1.6938 8.6805-1.2703 7.4102 0.63516 7.1984 6.3516 0 5.5047-1.0586 11.221-0.84688 4.0227-0.84688 5.293-0.42343 2.7523 1.482 3.3875 1.482 0.84688 4.8695 0.84688 2.1172 0 1.6938 1.9055-0.42344 1.9055-2.3289 1.9055-4.4461 0.21172-6.775-1.0586-3.1758-1.9055-3.1758-6.3516 0.21172-2.5406 1.2703-6.1398 0.84688-4.2344 0.84688-8.4688 0.21171-4.4461-4.0227-4.8695-0.21172 0-0.21172 0-5.0812-0.63516-8.0453 1.6938-2.9641 2.3289-4.8695 5.9281-2.1172 4.0227-3.1758 9.3156-0.42344 1.9055-0.84688 4.0227-0.21172 1.9055-0.63516 3.8109v0.21172q-0.42344 1.9055-2.3289 1.9055-1.9055 0-1.6938-1.9055 0.21172-1.2703 0.42344-3.1758 0.42344-1.9055 0.84688-3.8109-1.9055 2.5406-4.0227 4.8695-2.3289 2.5406-4.4461 3.1758-2.9641 1.0586-5.7164 0.84688zm20.325-24.771q0-0.21172 0-0.42344 0.21172-0.21172 0.21172-0.42344 1.0586-1.482 1.6938-2.9641 0.84688-1.6938 1.6938-3.3875 0.84688-1.482 1.482-2.9641 0.84688-1.6938 1.482-3.3875 3.5992-8.0453 5.7164-15.032 2.1172-6.9867 2.1172-10.586-0.42344-3.1758-1.9055-3.8109-0.63516-0.21172-1.2703 0-0.84688 0-2.1172 1.0586-3.5992 2.9641-4.8695 9.9508-1.482 6.9867-2.3289 13.762t-1.482 13.55q-0.21172 1.2703-0.42344 2.3289 0 1.0586 0 2.3289zm-64.786 24.771q-1.9055 0-1.482-2.1172 0.63516-1.9055 2.5406-1.6938 3.8109 0 6.775-3.1758 1.6938-1.9055 3.3875-4.8695 1.6938-3.1758 4.0227-6.9867l1.6938-8.0453q0.21172-1.9055 2.1172-1.9055t1.6938 1.9055l-0.42344 2.1172t0.21172 0q0.21172-0.21172 0.42344-0.42344 8.4688-7.1984 17.784-4.8695 1.0586 0.42344 1.9055 0.63516 4.6578 2.5406 5.7164 8.0453 0.84688 5.0812-1.9055 11.009-1.2703 2.1172-1.9055 2.9641-1.2703 1.9055-2.7523 3.5992 1.6938 0 3.1758 0 1.6938 0 3.1758 0 1.6938 0 1.6938 1.9055-0.42344 1.9055-2.3289 1.9055-2.9641 0.21172-6.3516 0.21172-3.1758 0-6.3516 0-2.3289 0-3.5992-0.21172-1.0586 0-3.3875-0.42344-3.8109-0.42344-5.5047-0.84688-1.6938-0.63516-0.84688-2.3289 0.42344-1.6938 2.5406-1.482 1.2703 0.21172 2.3289 0.63516 1.2703 0.21172 2.5406 0.21172 0.84688 0.21172 1.6938 0.42344 0.84688 0 1.6938 0 1.9055 0 2.7523-0.21172 3.1758-0.42344 6.5633-4.8695 0-0.63516 0.42344-1.2703 0.42344-0.63516 0.84688-1.2703 2.1172-4.6578 1.482-8.6805-0.63516-3.8109-4.0227-5.7164-3.5992-1.6938-7.8336-0.42344-4.0227 1.0586-7.4102 3.8109-2.3289 1.9055-4.2344 4.4461l-11.645 58.011q-0.21172 1.482-2.3289 1.2703-1.9055 0-1.482-1.2703l9.7391-48.06q-2.5406 3.5992-5.7164 5.9281-2.9641 2.3289-7.4102 2.1172z"/>
 </g>
</svg>
